<?xml version="1.0"?>
<svg width="640" height="480" xmlns="http://www.w3.org/2000/svg" xmlns:svg="http://www.w3.org/2000/svg">
 <!-- Created with SVG-edit - https://github.com/SVG-Edit/svgedit-->
 <g class="layer">
  <title>Layer 1</title>
  <path d="m436.964829,295.800405c-41.124025,41.124025 -104.740369,49.498893 -155.106568,20.421244c-50.366199,-29.079496 -74.921946,-88.361017 -59.869199,-144.537279c15.052807,-56.175882 65.95946,-95.237948 124.116639,-95.237948l90.859128,219.353992l0,-0.000009z" fill="none" id="svg_27" stroke="#7d5642" stroke-dasharray="null" stroke-linecap="null" stroke-linejoin="null" stroke-width="20" transform="rotate(112.764 327.282 204.943)"/>
  <line fill="none" id="svg_30" stroke="#7d5642" stroke-dasharray="null" stroke-linecap="null" stroke-linejoin="null" stroke-width="20" transform="rotate(1.35513 320 79.6975)" x1="320.500001" x2="319.500001" y1="90.698741" y2="68.696225"/>
  <line fill="none" id="svg_31" stroke="#7d5642" stroke-dasharray="null" stroke-linecap="null" stroke-linejoin="null" stroke-width="20" x1="137.669946" x2="502.330062" y1="304.7" y2="304.7"/>
  <line fill="none" id="svg_33" stroke="#7d5642" stroke-dasharray="null" stroke-linecap="null" stroke-linejoin="null" stroke-width="20" x1="171.129251" x2="468.87075" y1="336.7" y2="336.7"/>
  <path d="m261.678805,191.244968c-3.051192,10.527728 -7.771199,12.671689 -11.508113,5.227827c-3.736914,-7.444335 -5.558825,-22.620372 -4.441988,-37.001464c1.116841,-14.380995 4.893854,-24.380862 9.208819,-24.380862l6.741282,56.154501l0,-0.000002z" fill="none" id="svg_39" stroke="#7d5642" stroke-dasharray="null" stroke-linecap="null" stroke-linejoin="null" stroke-width="20" transform="rotate(40.9723 253.541 167.985)"/>
  <circle cx="320" cy="71.699998" fill="none" id="svg_40" r="1.5" stroke="#7d5642" stroke-dasharray="null" stroke-linecap="null" stroke-linejoin="null" stroke-width="20"/>
  <circle cx="138.7" cy="304.7" fill="none" id="svg_42" r="2.236068" stroke="#7d5642" stroke-dasharray="null" stroke-linecap="null" stroke-linejoin="null" stroke-width="15"/>
  <circle cx="501.200006" cy="304.700028" fill="none" id="svg_44" r="2.15686" stroke="#7d5642" stroke-dasharray="null" stroke-linecap="null" stroke-linejoin="null" stroke-width="15"/>
  <circle cx="171.199999" cy="336.399996" fill="none" id="svg_45" r="2.71109" stroke="#7d5642" stroke-dasharray="null" stroke-linecap="null" stroke-linejoin="null" stroke-width="15"/>
  <circle cx="468.399998" cy="336.299997" fill="none" id="svg_47" r="2.5" stroke="#7d5642" stroke-dasharray="null" stroke-linecap="null" stroke-linejoin="null" stroke-width="15"/>
  <ellipse cx="259.745394" cy="157.896036" fill="none" id="svg_52" rx="5.742937" ry="28.186199" stroke="#7d5642" stroke-dasharray="null" stroke-linecap="null" stroke-linejoin="null" stroke-width="20" transform="rotate(45.4532 259.745 157.896)"/>
 </g>
</svg>